Coordinates
version=1
nRows=18
nColumns=22
inDegrees=yes

Units are S.I. units (second, meters, Newtons, ...)
If the header above contains a line with 'inDegrees', this indicates whether rotational values are in degrees (yes) or radians (no).

endheader
time	pelvis_tilt	pelvis_list	pelvis_rotation	pelvis_tx	pelvis_ty	pelvis_tz	hip_flexion_r	hip_adduction_r	hip_rotation_r	knee_angle_r	ankle_angle_r	subtalar_angle_r	hip_flexion_l	hip_adduction_l	hip_rotation_l	knee_angle_l	ankle_angle_l	subtalar_angle_l	lumbar_extension	lumbar_bending	lumbar_rotation
      0.01000000	     -2.07768830	     -3.71217688	     -3.05142552	     -1.16777283	      0.95719914	     -0.22355251	     10.70854110	      7.08136769	      3.35459032	    -21.03546650	     10.05979712	     -4.14065265	     11.02875112	     -3.70829239	     -4.38158128	    -24.10691977	     13.79090278	     -3.44208368	     -5.00133660	      2.70806961	     -0.09811255
      0.02000000	     -2.08751789	     -3.30125150	     -3.02861028	     -1.16762213	      0.95662057	     -0.22382057	     10.37505921	      6.60183469	      3.60971724	    -20.37468216	     11.50983201	     -3.39404925	     11.01711070	     -3.23765105	     -4.43475611	    -24.05070469	     13.77463752	     -3.56988792	     -4.95183976	      2.26402118	     -0.15847681
      0.03000000	     -2.11901434	     -3.29645267	     -3.01771288	     -1.16767993	      0.95662438	     -0.22388399	     10.35691283	      6.58407721	      3.58319201	    -20.28099768	     11.51178674	     -3.39055057	     11.04914931	     -3.23171087	     -4.44556709	    -24.03801915	     13.77629820	     -3.57236454	     -4.93937543	      2.27603754	     -0.15477731
      0.04000000	     -2.15728654	     -3.31709199	     -2.98641996	     -1.16774594	      0.95662322	     -0.22396649	     10.33502309	      6.59371981	      3.55440313	    -20.16856746	     11.49235231	     -3.38207898	     11.09716858	     -3.24833441	     -4.41958550	    -24.03569659	     13.76679794	     -3.58489665	     -4.92450748	      2.32024378	     -0.18763804
      0.05000000	     -2.18466791	     -3.31421743	     -2.98170519	     -1.16781665	      0.95662262	     -0.22402026	     10.32122733	      6.58063087	      3.52859311	    -20.08930534	     11.49137416	     -3.38066474	     11.13065294	     -3.24157528	     -4.41955740	    -24.03387918	     13.76949498	     -3.59132946	     -4.92602016	      2.33293087	     -0.15715382
      0.06000000	     -2.22305875	     -3.33741820	     -2.96482156	     -1.16788814	      0.95660227	     -0.22407134	     10.31583685	      6.59890050	      3.51562302	    -20.00451450	     11.46375615	     -3.37959939	     11.18552753	     -3.26270755	     -4.40003482	    -24.04564864	     13.76648590	     -3.61750840	     -4.91780537	      2.37594519	     -0.15774876
      0.07000000	     -2.24066197	     -3.33486148	     -2.96458685	     -1.16795919	      0.95659164	     -0.22410881	     10.31501660	      6.59037846	      3.50113353	    -19.96468348	     11.46039075	     -3.38052047	     11.21789224	     -3.25589126	     -4.39462412	    -24.06111441	     13.76871493	     -3.62486736	     -4.93650708	      2.38477617	     -0.11690430
      0.08000000	     -2.27647728	     -3.35931811	     -2.96899753	     -1.16804648	      0.95653623	     -0.22410988	     10.34699760	      6.61860482	      3.50277976	    -19.94701095	     11.43114502	     -3.38852121	     11.28366763	     -3.28434192	     -4.39137275	    -24.10065859	     13.77467885	     -3.66038604	     -4.93801433	      2.42106790	     -0.07673777
      0.09000000	     -2.28179501	     -3.35740811	     -2.96734267	     -1.16809468	      0.95651543	     -0.22413662	     10.35397088	      6.61436268	      3.50043390	    -19.94431439	     11.42824237	     -3.39036284	     11.31054025	     -3.27860976	     -4.38197953	    -24.12962699	     13.77591305	     -3.66603007	     -4.96962179	      2.42477866	     -0.03957839
      0.10000000	     -2.27988640	     -3.36445065	     -2.96915823	     -1.16814043	      0.95648829	     -0.22413980	     10.36904457	      6.62405748	      3.50465765	    -19.96947631	     11.42338696	     -3.39229532	     11.33482802	     -3.28453205	     -4.37065699	    -24.17064137	     13.77842733	     -3.67367717	     -5.01119617	      2.43259797	     -0.00093937
      0.11000000	     -2.27240100	     -3.37783163	     -2.97249396	     -1.16816349	      0.95645954	     -0.22413597	     10.38447053	      6.64254499	      3.51626448	    -20.00700007	     11.42080881	     -3.39287781	     11.35305499	     -3.29934160	     -4.36453202	    -24.21504350	     13.78600374	     -3.68372471	     -5.05627800	      2.44569188	      0.02912372
      0.12000000	     -2.25515188	     -3.39025452	     -2.96191381	     -1.16814311	      0.95643722	     -0.22415208	     10.38879967	      6.65974037	      3.53699711	    -20.04964791	     11.42206123	     -3.39082414	     11.36022930	     -3.31141931	     -4.35529046	    -24.25955163	     13.79225470	     -3.69034615	     -5.10379472	      2.45489356	      0.04941975
      0.13000000	     -2.21071974	     -3.42633722	     -2.95621075	     -1.16808000	      0.95645715	     -0.22415978	     10.34724540	      6.70273250	      3.56971544	    -20.06811290	     11.44090418	     -3.36778486	     11.33101247	     -3.35146134	     -4.36242063	    -24.30004169	     13.82426632	     -3.70850950	     -5.18171523	      2.48962962	      0.06828298
      0.14000000	     -2.18011379	     -3.43397817	     -2.94088167	     -1.16802343	      0.95645681	     -0.22418839	     10.33290590	      6.71581294	      3.60442260	    -20.10623400	     11.44363725	     -3.35754586	     11.31916176	     -3.35471294	     -4.34301705	    -24.33959798	     13.82376476	     -3.70943795	     -5.24052762	      2.48943530	      0.05986419
      0.15000000	     -2.07622236	     -3.47486737	     -2.91428169	     -1.16784188	      0.95658774	     -0.22421993	     10.18478981	      6.75805040	      3.63995515	    -20.06394434	     11.49020916	     -3.28677217	     11.20118109	     -3.39084223	     -4.32664620	    -24.34668752	     13.85317774	     -3.71467223	     -5.37061964	      2.52221330	      0.04787284
      0.16000000	     -2.04669923	     -3.47866063	     -2.90170571	     -1.16776896	      0.95659260	     -0.22424048	     10.16523671	      6.76718675	      3.67078639	    -20.09278330	     11.48747252	     -3.26994459	     11.18682247	     -3.39051124	     -4.31452704	    -24.38217657	     13.85203061	     -3.71448964	     -5.42398362	      2.51425332	      0.02983049
      0.17000000	     -1.96080632	     -3.51517888	     -2.88447371	     -1.16759215	      0.95670480	     -0.22424617	     10.02930975	      6.80484284	      3.69036140	    -20.03624675	     11.53055469	     -3.18307125	     11.08490521	     -3.42425685	     -4.30464242	    -24.38438884	     13.87652996	     -3.71838823	     -5.53014866	      2.53929550	      0.00958211
      0.18000000	     -1.91275811	     -3.53064500	     -2.88276158	     -1.16750291	      0.95675030	     -0.22422881	      9.96483103	      6.82296510	      3.70522987	    -20.02345020	     11.54375675	     -3.11356309	     11.04232067	     -3.43969928	     -4.30494092	    -24.41228194	     13.88438239	     -3.72101541	     -5.60229868	      2.53752154	     -0.00775703
